GREETZ: UnDeaD - BadGirl2k9 - virusofsaten - foxyb - WICCYWOLF - lizzymwah1

VISIT http://www.seedboxworld.biz/ for all ur seedbox needs!

RELEASE NAME: A.Gang.Land.Love.Story.2010.DVDRip.X264-SDTeam
RELEASED BY: UnDeaD & BadGirl2k9
SIZE: 470.2 MB

LANGUAGE: English
IMDb: http://www.imdb.com/title/tt1320250/

PLOT: The younger sister of a feared African American 
crime boss and the nephew of his powerful Latina nemesis 
go on the run in a customized Cadillac convertible packed 
with $20 million in drugs in this romantic crime drama. Julia 
and Romano have fallen in love, but their families will never 
let them be together. Desperate, the two young lovers hit the 
road in a vintage Cadillac. But their getaway vehicle has some 
rather precious cargo stashed away in the customized tires, and 
it isn't long before their furious families, and the Russian mob, 
are hot on their trail. 

COVER IMAGE: http://bayimg.com/gaoDfAAcN
SCREENS: 
http://i658.photobucket.com/albums/uu309/BadGirl2k9/screens/vlcsnap-2010-09-07-23h08m54s120.png 
http://i658.photobucket.com/albums/uu309/BadGirl2k9/screens/vlcsnap-2010-09-07-23h09m03s0.png 
http://i658.photobucket.com/albums/uu309/BadGirl2k9/screens/vlcsnap-2010-09-07-23h09m11s44.png

General
Format                           : MPEG-4
Format profile                   : Base Media
Codec ID                         : isom
File size                        : 470 MiB
Duration                         : 1h 45mn
Overall bit rate                 : 624 Kbps
Encoded date                     : UTC 2010-09-06 21:59:43
Tagged date                      : UTC 2010-09-06 21:59:43

Video
ID                               : 1
Format                           : AVC
Format/Info                      : Advanced Video Codec
Format profile                   : High@L2.2
Format settings, CABAC           : Yes
Format settings, ReFrames        : 4 frames
Codec ID                         : avc1
Codec ID/Info                    : Advanced Video Coding
Duration                         : 1h 45mn
Bit rate mode                    : Variable
Bit rate                         : 500 Kbps
Maximum bit rate                 : 2 235 Kbps
Width                            : 624 pixels
Height                           : 352 pixels
Display aspect ratio             : 16:9
Frame rate mode                  : Constant
Frame rate                       : 20.000 fps
Resolution                       : 8 bits
Colorimetry                      : 4:2:0
Scan type                        : Progressive
Bits/(Pixel*Frame)               : 0.114
Stream size                      : 377 MiB (80%)
Title                            : Imported with GPAC 0.4.6-DEV (internal rev. 5)
Writing library                  : x264 core 102 r1666 d058f37

Audio
ID                               : 2
Format                           : MPEG Audio
Format version                   : Version 1
Format profile                   : Layer 3
Format_Settings_Mode             : Joint stereo
Format_Settings_ModeExtension    : MS Stereo
Codec ID                         : 6B
Duration                         : 1h 45mn
Bit rate mode                    : Variable
Bit rate                         : 121 Kbps
Nominal bit rate                 : 128 Kbps
Maximum bit rate                 : 136 Kbps
Channel(s)                       : 2 channels
Sampling rate                    : 48.0 KHz
Stream size                      : 91.0 MiB (19%)
Title                            : Imported with GPAC 0.4.6-DEV (internal rev. 5)
Writing library                  : LAME3.90.

GROUP NOTE: Big thanks to seedboxworld.biz for the seedbox!
